<svg width="32" height="32" viewBox="0 0 32 32" fill="none" xmlns="http://www.w3.org/2000/svg">
<circle cx="16" cy="16" r="16" fill="white"/>
<circle cx="16" cy="16" r="11.5" fill="white" stroke="#2C3D63"/>
<path d="M21 14.9311C21 15.7044 20.7031 16.4471 20.1729 16.9965C18.9525 18.2615 17.7687 19.5807 16.5027 20.7999C16.2125 21.0753 15.7521 21.0652 15.4744 20.7774L11.8269 16.9965C10.7244 15.8536 10.7244 14.0086 11.8269 12.8658C12.9402 11.7117 14.754 11.7117 15.8673 12.8658L15.9999 13.0032L16.1324 12.8659C16.6662 12.3123 17.3932 12 18.1527 12C18.9121 12 19.6391 12.3122 20.1729 12.8658C20.7032 13.4152 21 14.1579 21 14.9311Z" fill="#AFB8CA" stroke="#2C3D63" stroke-linejoin="round"/>
</svg>
